:SAMPLES-PER-SECOND 30
:FULLY-SPECIFIED
:DEGREES
124
root  -39.1973 37.7847 -1.30891 -144.377 -82.7243 136.988
RightUpLeg  1.14899 -15.6274 -15.1045
RightLeg  67.0232 -0.853681 -2.87693
RightFoot  7.57371 -1.38822 8.55518
RightToes  1.16414e-010 0 -3.6325e-017
Spine  13.8155 2.8774 -2.62062
Spine1  6.29985 4.74759 -7.6342
HEad  -24.5169 42.7316 -31.8016
LeftShoulder1  7.88069 -11.0621 -47.2026
LeftArm  -55.7208 10.1937 -9.29678
LeftForeArm  -21.7104 -35.776 -9.23305
LeftHand  -0.244104 0.0205437 5.32207
RightShoulder  4.73642 8.24047 34.3778
RightArm  -13.8038 -15.8415 32.7001
RightForeArm  -7.28516 38.8627 9.46188
RightHand  -1.96262 4.95127 -22.0621
LeftUpLeg  -21.8622 6.51749 -11.4856
LeftLeg  36.5469 9.5114 7.86102
LeftFoot  -7.46824 -0.257215 9.01757
LeftToes  -6.45774e-011 3.08606e-011 -5.1752e-012
125
root  -40.4796 38.3383 -1.18744 -143.663 -82.9382 135.732
RightUpLeg  -5.50814 -13.746 -14.4166
RightLeg  72.5212 -1.20338 -5.23743
RightFoot  5.87777 -0.787704 5.45514
RightToes  1.16414e-010 0 -3.6325e-017
Spine  14.2441 2.53273 -3.64671
Spine1  7.1909 3.68243 -4.96929
HEad  -25.6936 45.5276 -32.513
LeftShoulder1  7.91849 -11.0519 -47.4664
LeftArm  -55.8055 7.69581 -8.90673
LeftForeArm  -22.2302 -34.7398 -8.94536
LeftHand  -0.244104 0.0205437 5.32207
RightShoulder  4.65608 7.9979 34.5267
RightArm  -12.8932 -14.35 32.4684
RightForeArm  -3.33599 37.8148 8.90188
RightHand  -1.92723 5.04945 -21.4801
LeftUpLeg  -17.1169 8.73778 -11.5169
LeftLeg  33.072 8.32084 6.15732
LeftFoot  -8.09832 -0.222722 9.47265
LeftToes  -6.45774e-011 3.08606e-011 -5.1752e-012
126
root  -41.6375 39.2798 -1.10181 -144.485 -84.6373 136.53
RightUpLeg  -10.9642 -13.2625 -12.1194
RightLeg  71.9458 -1.83656 -7.21865
RightFoot  2.85882 -0.547942 4.57648
RightToes  1.16414e-010 0 -3.6325e-017
Spine  14.3219 1.8339 -3.33809
Spine1  8.19873 2.32604 -2.34906
HEad  -26.7366 47.6552 -32.9002
LeftShoulder1  7.90891 -11.0868 -47.2937
LeftArm  -54.7419 5.25896 -8.77004
LeftForeArm  -22.1527 -34.5272 -8.87942
LeftHand  -0.244104 0.0205437 5.32207
RightShoulder  4.52713 7.74805 34.2817
RightArm  -12.698 -13.0245 33.2192
RightForeArm  0.977885 36.194 8.15778
RightHand  -1.9438 5.09653 -21.565
LeftUpLeg  -11.4555 9.32725 -10.1549
LeftLeg  26.1299 7.09361 4.19522
LeftFoot  -6.13868 -0.446926 10.6195
LeftToes  -6.45774e-011 3.08606e-011 -5.1752e-012
127
root  -42.7057 40.3083 -1.07486 -148.318 -87.1281 140.915
RightUpLeg  -15.6888 -13.4098 -8.78072
RightLeg  67.0856 -3.12459 -8.75631
RightFoot  1.00993 -0.432811 4.04723
RightToes  1.16414e-010 0 -3.6325e-017
Spine  13.8611 1.27759 -2.19911
Spine1  9.6369 1.24135 -0.172341
HEad  -27.3655 48.5793 -32.1557
LeftShoulder1  7.90075 -11.2911 -46.58
LeftArm  -54.106 2.34712 -9.22897
LeftForeArm  -20.8538 -35.414 -9.08365
LeftHand  -0.244104 0.0205437 5.32207
RightShoulder  4.35352 7.4554 33.7771
RightArm  -12.8721 -12.4758 34.1545
RightForeArm  3.08001 35.2551 7.7632
RightHand  -1.92227 4.93851 -21.6465
LeftUpLeg  -6.06521 8.38044 -7.8247
LeftLeg  17.9309 5.68278 1.98449
LeftFoot  -3.54846 -0.63964 9.76847
LeftToes  -6.45774e-011 3.08606e-011 -5.1752e-012
128
root  -43.7975 41.1203 -1.11124 -155.409 -89.6846 149.187
RightUpLeg  -20.2664 -13.2067 -5.37994
RightLeg  60.2889 -4.541 -9.08127
RightFoot  -0.213556 -0.269897 2.76368
RightToes  1.16414e-010 0 -3.6325e-017
Spine  12.8106 1.00033 -1.37901
Spine1  11.0096 0.353582 2.13145
HEad  -26.781 49.0794 -29.6716
LeftShoulder1  7.81974 -11.433 -45.637
LeftArm  -54.9223 -0.963639 -9.76414
LeftForeArm  -18.4433 -37.3382 -9.56346
LeftHand  -0.244104 0.0205437 5.32207
RightShoulder  4.16297 7.11554 33.2558
RightArm  -12.6445 -12.4371 34.4675
RightForeArm  2.38708 35.5421 7.88661
RightHand  -1.92576 4.9783 -21.6051
LeftUpLeg  -2.04957 5.35775 -4.94193
LeftLeg  11.8219 6.55244 -0.334624
LeftFoot  -1.92818 -0.533871 6.58703
LeftToes  -6.45774e-011 3.08606e-011 -5.1752e-012
129
root  -44.9324 41.5116 -1.17691 24.0263 -87.7741 -29.0493
RightUpLeg  -24.0215 -12.7953 -3.25535
RightLeg  52.5071 -4.75988 -7.0612
RightFoot  -1.34191 -0.294246 3.273
RightToes  1.16414e-010 0 -3.6325e-017
Spine  12.2119 0.656676 -1.71868
Spine1  11.1677 -0.847645 4.77502
HEad  -24.5353 50.0318 -25.6648
LeftShoulder1  7.44212 -11.1228 -44.2919
LeftArm  -55.6868 -3.633 -9.96032
LeftForeArm  -15.5191 -40.2795 -10.3919
LeftHand  -0.244104 0.0205437 5.32207
RightShoulder  3.98649 6.92775 32.2723
RightArm  -12.4093 -12.9047 34.6797
RightForeArm  1.31093 36.8274 8.32582
RightHand  -2.02149 5.35091 -21.8856
LeftUpLeg  0.380158 4.49443 -2.91492
LeftLeg  10.113 7.21385 -1.17098
LeftFoot  -2.70276 -0.273583 3.78529
LeftToes  -6.45774e-011 3.08606e-011 -5.1752e-012
130
root  -46.0804 41.423 -1.23275 15.3112 -84.9879 -20.1131
RightUpLeg  -25.8687 -13.2029 -2.51459
RightLeg  43.9314 -3.34316 -3.76368
RightFoot  -1.83484 -0.412906 4.80139
RightToes  1.16414e-010 0 -3.6325e-017
Spine  12.9408 0.113654 -2.7948
Spine1  9.81082 -2.28489 7.48384
HEad  -21.1386 51.1351 -21.1213
LeftShoulder1  6.78997 -10.4805 -42.1474
LeftArm  -55.0252 -5.24078 -10.0277
LeftForeArm  -12.2297 -43.7464 -11.4815
LeftHand  -0.244104 0.0205437 5.32207
RightShoulder  3.83807 7.02453 30.5013
RightArm  -13.1243 -14.2483 35.3441
RightForeArm  1.61712 39.0925 9.01002
RightHand  -2.13941 5.63692 -22.5429
LeftUpLeg  2.60453 5.12974 -1.70644
LeftLeg  11.6715 7.32664 -0.496328
LeftFoot  -6.33255 -0.0948064 3.14165
LeftToes  -6.45774e-011 3.08606e-011 -5.1752e-012
